<svg xmlns="http://www.w3.org/2000/svg" viewBox="0 0 138.35 72"><linearGradient id="a" gradientUnits="userSpaceOnUse" x1="0" y1="36" x2="113" y2="36"><stop offset="0" stop-color="#424242"/><stop offset="1" stop-color="#909090"/></linearGradient><path fill="url(#a)" d="M113 72H10C4.48 72 0 67.52 0 62V10C0 4.48 4.48 0 10 0h103v51.99c-.42.89-3.26 4.26-3.31 9.38-.04 4.27 2.13 8.2 3.31 10.63z"/><linearGradient id="b" gradientUnits="userSpaceOnUse" x1="2.451" y1="60.771" x2="113" y2="60.771"><stop offset="0" stop-color="#38aa00"/><stop offset="0" stop-color="#eee"/></linearGradient><path fill="url(#b)" d="M11.45 51.71H113c0 2.15-3.38 4.79-3.31 9.76.05 4.11 1.5 6.92 2.34 8.37H11.45a9 9 0 01-9-9v-.13a9 9 0 019-9z"/><linearGradient id="c" gradientUnits="userSpaceOnUse" x1="8.915" y1="53.472" x2="112.459" y2="53.472"><stop offset="0" stop-color="#424242"/><stop offset="1" stop-color="#909090"/></linearGradient><path fill="url(#c)" d="M112.46 53.47H8.92"/><linearGradient id="d" gradientUnits="userSpaceOnUse" x1="6.253" y1="55.395" x2="111.254" y2="55.395"><stop offset="0" stop-color="#424242"/><stop offset="1" stop-color="#909090"/></linearGradient><path fill="url(#d)" d="M111.25 55.66l-105-.53"/><linearGradient id="e" gradientUnits="userSpaceOnUse" x1="5.129" y1="57.65" x2="110.322" y2="57.65" gradientTransform="matrix(1 -.0026 .0026 1.002 -.15 .174)"><stop offset="0" stop-color="#424242"/><stop offset="1" stop-color="#909090"/></linearGradient><path fill="url(#e)" d="M110.32 58.03L5.13 57.55"/><linearGradient id="f" gradientUnits="userSpaceOnUse" x1="4.099" y1="59.965" x2="109.754" y2="59.965"><stop offset="0" stop-color="#424242"/><stop offset="1" stop-color="#909090"/></linearGradient><path fill="url(#f)" d="M109.75 60.24L4.1 59.69"/><linearGradient id="g" gradientUnits="userSpaceOnUse" x1="4.099" y1="62.474" x2="109.754" y2="62.474"><stop offset="0" stop-color="#424242"/><stop offset="1" stop-color="#909090"/></linearGradient><path fill="url(#g)" d="M109.75 62.85L4.1 62.1"/><linearGradient id="h" gradientUnits="userSpaceOnUse" x1="5.113" y1="64.805" x2="110.127" y2="64.805"><stop offset="0" stop-color="#424242"/><stop offset="1" stop-color="#909090"/></linearGradient><path fill="url(#h)" d="M110.13 65.1L5.11 64.51"/><linearGradient id="i" gradientUnits="userSpaceOnUse" x1="7.775" y1="67.376" x2="110.832" y2="67.376"><stop offset="0" stop-color="#424242"/><stop offset="1" stop-color="#909090"/></linearGradient><path fill="url(#i)" d="M110.83 67.38H7.77"/><linearGradient id="j" gradientUnits="userSpaceOnUse" x1="14.746" y1="61.518" x2="27.549" y2="61.518"><stop offset="0" stop-color="#424242"/><stop offset="0" stop-color="#79b260"/></linearGradient><path fill="url(#j)" d="M27.55 66.83l-6.4-3.86-6.4 3.86V56.2h12.8z"/><text transform="matrix(.881 0 0 1 16.901 37.66)"><tspan x="6.11" y="0" fill="#FFF" font-family="'MyriadPro-Regular'" font-size="28.804">BOOKS</tspan></text><text transform="matrix(0 -1.0364 1 0 133.014 72)" fill="#5B5B5B" font-family="'MyriadPro-Regular'" font-size="21.355">ONLINE</text></svg>