<?xml version="1.0" encoding="utf-8"?>
<!-- Generator: Adobe Illustrator 23.0.1, SVG Export Plug-In . SVG Version: 6.00 Build 0)  -->
<svg version="1.1" id="Слой_1" xmlns="http://www.w3.org/2000/svg" xmlns:xlink="http://www.w3.org/1999/xlink" x="0px" y="0px"
	 viewBox="0 0 138.35 72" enable-background="new 0 0 138.35 72" xml:space="preserve">
<linearGradient id="SVGID_1_" gradientUnits="userSpaceOnUse" x1="0" y1="36" x2="113" y2="36">
	<stop  offset="0" style="stop-color:#424242"/>
	<stop  offset="1" style="stop-color:#909090"/>
</linearGradient>
<path fill="url(#SVGID_1_)" d="M113,72H10C4.48,72,0,67.52,0,62V10C0,4.48,4.48,0,10,0h103c0,33.99,0,45.53,0,51.99
	c-0.42,0.89-3.26,4.26-3.31,9.38C109.65,65.64,111.82,69.57,113,72z"/>
<linearGradient id="SVGID_2_" gradientUnits="userSpaceOnUse" x1="2.4507" y1="60.7713" x2="113" y2="60.7713">
	<stop  offset="0" style="stop-color:#38AA00"/>
	<stop  offset="0" style="stop-color:#EEEEEE"/>
</linearGradient>
<path fill="url(#SVGID_2_)" d="M11.45,51.71H113c0,2.15-3.38,4.79-3.31,9.76c0.05,4.11,1.5,6.92,2.34,8.37
	c-33.85,0-66.73,0-100.58,0c-4.97,0-9-4.03-9-9v-0.13C2.45,55.74,6.48,51.71,11.45,51.71z"/>
<linearGradient id="SVGID_3_" gradientUnits="userSpaceOnUse" x1="8.9155" y1="53.4718" x2="112.4585" y2="53.4718">
	<stop  offset="0" style="stop-color:#424242"/>
	<stop  offset="1" style="stop-color:#909090"/>
</linearGradient>
<line fill="url(#SVGID_3_)" x1="112.46" y1="53.47" x2="8.92" y2="53.47"/>
<linearGradient id="SVGID_4_" gradientUnits="userSpaceOnUse" x1="6.2535" y1="55.3951" x2="111.2542" y2="55.3951">
	<stop  offset="0" style="stop-color:#424242"/>
	<stop  offset="1" style="stop-color:#909090"/>
</linearGradient>
<line fill="url(#SVGID_4_)" x1="111.25" y1="55.66" x2="6.25" y2="55.13"/>
<linearGradient id="SVGID_5_" gradientUnits="userSpaceOnUse" x1="5.1287" y1="57.6502" x2="110.3221" y2="57.6502" gradientTransform="matrix(1 -2.600682e-03 2.605805e-03 1.002 -0.1503 0.1744)">
	<stop  offset="0" style="stop-color:#424242"/>
	<stop  offset="1" style="stop-color:#909090"/>
</linearGradient>
<line fill="url(#SVGID_5_)" x1="110.32" y1="58.03" x2="5.13" y2="57.55"/>
<linearGradient id="SVGID_6_" gradientUnits="userSpaceOnUse" x1="4.0986" y1="59.9654" x2="109.7536" y2="59.9654">
	<stop  offset="0" style="stop-color:#424242"/>
	<stop  offset="1" style="stop-color:#909090"/>
</linearGradient>
<line fill="url(#SVGID_6_)" x1="109.75" y1="60.24" x2="4.1" y2="59.69"/>
<linearGradient id="SVGID_7_" gradientUnits="userSpaceOnUse" x1="4.0986" y1="62.4741" x2="109.7536" y2="62.4741">
	<stop  offset="0" style="stop-color:#424242"/>
	<stop  offset="1" style="stop-color:#909090"/>
</linearGradient>
<line fill="url(#SVGID_7_)" x1="109.75" y1="62.85" x2="4.1" y2="62.1"/>
<linearGradient id="SVGID_8_" gradientUnits="userSpaceOnUse" x1="5.1127" y1="64.8055" x2="110.1266" y2="64.8055">
	<stop  offset="0" style="stop-color:#424242"/>
	<stop  offset="1" style="stop-color:#909090"/>
</linearGradient>
<line fill="url(#SVGID_8_)" x1="110.13" y1="65.1" x2="5.11" y2="64.51"/>
<linearGradient id="SVGID_9_" gradientUnits="userSpaceOnUse" x1="7.7746" y1="67.3759" x2="110.8321" y2="67.3759">
	<stop  offset="0" style="stop-color:#424242"/>
	<stop  offset="1" style="stop-color:#909090"/>
</linearGradient>
<line fill="url(#SVGID_9_)" x1="110.83" y1="67.38" x2="7.77" y2="67.38"/>
<linearGradient id="SVGID_10_" gradientUnits="userSpaceOnUse" x1="14.7465" y1="61.5179" x2="27.5493" y2="61.5179">
	<stop  offset="0" style="stop-color:#424242"/>
	<stop  offset="0" style="stop-color:#79B260"/>
</linearGradient>
<polygon fill="url(#SVGID_10_)" points="27.55,66.83 21.15,62.97 14.75,66.83 14.75,56.2 27.55,56.2 "/>
<text transform="matrix(0.881 0 0 1 16.9011 37.6609)"><tspan x="0" y="0" font-family="'MyriadPro-Regular'" font-size="28.8038px"> </tspan><tspan x="6.11" y="0" fill="#FFFFFF" font-family="'MyriadPro-Regular'" font-size="28.8038px">BOOKS</tspan></text>
<text transform="matrix(6.123234e-17 -1.0364 1 6.345979e-17 133.0142 71.9995)" fill="#5B5B5B" font-family="'MyriadPro-Regular'" font-size="21.3546px">ONLINE</text>
</svg>
